<?xml version="1.0" encoding="utf-8"?>
<svg xmlns="http://www.w3.org/2000/svg" viewBox="0 0 32 32" width="48" height="48">
  <path d="M15.984375 3C15.614125 3.00125 15.242672 3.0183281 14.888672 3.0488281L15.054688 5.0390625C15.638785 4.9914406 16.289084 4.9885256 16.876953 5.0332031C22.553953 5.4812031 27 10.299 27 16C27 22.065 22.065 27 16 27C12.81 27 9.7795 25.617078 7.6875 23.205078L6.1777344 24.515625C8.6487344 27.364625 12.229 29 16 29C23.168 29 29 23.168 29 16C29 9.2769492 23.76526 3.5951429 17.076172 3.0449219L17.076172 3.0410156C17.064167 3.0400464 17.051106 3.0399971 17.039062 3.0390625C17.037797 3.0389643 17.036422 3.0391603 17.035156 3.0390625C16.694215 3.0127183 16.340711 2.998797 15.984375 3 z M 12.771484 3.4042969C12.079484 3.5812969 11.396187 3.8174219 10.742188 4.1074219L11.552734 5.9355469C12.104734 5.6895469 12.682625 5.49175 13.265625 5.34375L12.771484 3.4042969 z M 8.859375 5.1367188C8.265375 5.5267188 7.697875 5.9710313 7.171875 6.4570312L8.5292969 7.9277344C8.9742969 7.5157344 9.4569375 7.1386406 9.9609375 6.8066406L8.859375 5.1367188 z M 5.7207031 8.0390625C5.2817031 8.6080625 4.8877812 9.2148906 4.5507812 9.8378906L6.3105469 10.787109C6.5955469 10.258109 6.9306875 9.7466719 7.3046875 9.2636719L5.7207031 8.0390625 z M 3.6914062 11.808594C3.4604063 12.487594 3.286875 13.186625 3.171875 13.890625L5.1464844 14.210938C5.2424844 13.616937 5.3909375 13.025125 5.5859375 12.453125L3.6914062 11.808594 z M 5 16.021484L3 16.027344C3.002 16.744344 3.0626875 17.463062 3.1796875 18.164062L5.1523438 17.833984C5.0533438 17.239984 5.002 16.629484 5 16.021484 z M 5.5996094 19.591797L3.7070312 20.244141C3.9390313 20.917141 4.2302187 21.577031 4.5742188 22.207031L6.3300781 21.251953C6.0400781 20.719953 5.7956094 20.159797 5.5996094 19.591797 z" fill="#FFFFFF" />
</svg>