<svg xmlns="http://www.w3.org/2000/svg" viewBox="0 0 48 48"><path fill="#4caf50" stroke="#4caf50" stroke-width="2" d="M43,24c0,10.5-8.5,19-19,19S5,34.5,5,24S13.5,5,24,5S43,13.5,43,24z"/><path fill="#fff" d="M26.9,29.2c0-0.8-0.2-1.4-0.6-1.9s-1.2-0.9-2.2-1.3s-3.4-1.7-4.4-2.6c-0.5-0.5-1-1.1-1.3-1.8 C18.1,20.8,18,20,18,19c0-1.7,0.5-3.1,1.4-4.3C20.7,13.2,23,13,23,13v-3h2v3c1.2,0,3.5,0.4,4.8,2.5C31,17.3,31,20,31,20h-4 c0-1.2-0.2-2-0.7-2.6c-0.5-0.6-1.2-0.9-2-0.9c-0.8,0-1.3,0.3-1.7,0.8c-0.4,0.5-0.6,1.1-0.6,1.9c0,0.7,0.2,1.3,0.6,1.8 c0.4,0.4,1.1,0.8,2.2,1.3c1.1,0.5,2.1,0.9,2.8,1.3c0.7,0.4,1.3,0.9,1.8,1.4c0.5,0.5,0.9,1.1,1.2,1.8c0.3,0.7,0.4,1.5,0.4,2.4 c0,1.7-0.5,3-1.5,4.1s-2.7,1.7-4.5,1.8V38h-2v-2.9c-1.9-0.2-3.3-0.9-4.4-2.1C17.5,31.7,17,30,17,28h4c0,1.2,0.3,2.2,0.8,2.8 c0.5,0.6,1.2,0.9,2.2,0.9c0.8,0,1.7-0.2,2.2-0.7C26.7,30.6,26.9,30,26.9,29.2z"/></svg>